<svg width="193" height="53" fill="none" xmlns="http://www.w3.org/2000/svg"><g clip-path="url(#clip0_1_198)" fill="#151515"><path d="M60.615 32.024H53.53l-1.172 3.65H48.61l6.398-19.182h4.156l6.398 19.182h-3.773l-1.173-3.65zm-.968-3.073l-2.575-8.013-2.574 8.013h5.15zm20.62-8.491v15.204h-3.594v-1.92a4.883 4.883 0 01-1.81 1.563c-.73.366-1.53.55-2.395.55-1.105 0-2.082-.248-2.932-.742-.85-.512-1.521-1.253-2.014-2.223-.476-.988-.713-2.159-.713-3.512v-8.92h3.568v8.37c0 1.208.28 2.142.841 2.8.561.64 1.326.96 2.294.96.986 0 1.76-.32 2.32-.96.561-.659.841-1.592.841-2.8v-8.37h3.594zm6.658 3.159v7.354c0 .512.11.888.33 1.125.239.22.63.33 1.174.33h1.657v3.238h-2.243c-3.008 0-4.512-1.574-4.512-4.72v-7.327h-1.683v-3.156h1.683v-3.76h3.594v3.76h3.16v3.156h-3.16zm10.976 12.297c-1.359 0-2.583-.32-3.67-.961-1.088-.658-1.946-1.582-2.575-2.772-.612-1.189-.918-2.56-.918-4.116 0-1.555.315-2.927.943-4.116.646-1.19 1.521-2.104 2.626-2.744 1.105-.659 2.337-.988 3.696-.988 1.36 0 2.592.329 3.696.988 1.105.64 1.971 1.555 2.601 2.744.645 1.189.968 2.561.968 4.116 0 1.555-.331 2.927-.994 4.116-.646 1.19-1.53 2.114-2.651 2.772-1.105.64-2.345.96-3.722.96zm0-3.348c.646 0 1.249-.165 1.81-.494.578-.348 1.037-.86 1.376-1.537.341-.677.51-1.5.51-2.47 0-1.445-.357-2.552-1.07-3.32-.697-.787-1.555-1.18-2.575-1.18-1.02 0-1.878.393-2.574 1.18-.68.768-1.02 1.875-1.02 3.32 0 1.445.331 2.561.994 3.348.68.768 1.529 1.153 2.549 1.153zm26.504-12.326c1.733 0 3.127.576 4.18 1.729 1.071 1.134 1.607 2.726 1.607 4.775v8.919h-3.569v-8.398c0-1.189-.281-2.094-.841-2.716-.561-.64-1.326-.96-2.295-.96-.969 0-1.742.32-2.319.96-.561.622-.841 1.527-.841 2.716v8.398h-3.569v-8.398c0-1.189-.281-2.094-.842-2.716-.56-.64-1.325-.96-2.293-.96-.986 0-1.768.32-2.346.96-.561.622-.841 1.527-.841 2.716v8.398h-3.569V20.462h3.569V22.3a4.854 4.854 0 011.759-1.509 5.275 5.275 0 012.396-.549c1.105 0 2.09.256 2.957.768.867.494 1.538 1.208 2.014 2.141a5.34 5.34 0 011.988-2.113 5.45 5.45 0 012.855-.796zm7.24 7.77c0-1.537.28-2.9.841-4.088.578-1.19 1.351-2.104 2.32-2.745a5.905 5.905 0 013.288-.96c1.053 0 1.971.228 2.753.686.799.457 1.436 1.033 1.912 1.729v-2.168h3.594v15.203h-3.594v-2.223c-.459.713-1.096 1.308-1.912 1.784-.799.457-1.725.686-2.779.686a5.745 5.745 0 01-3.262-.988c-.969-.659-1.742-1.583-2.32-2.772-.561-1.207-.841-2.589-.841-4.144zm11.114.055c0-.933-.17-1.729-.51-2.387-.34-.677-.799-1.19-1.377-1.537a3.414 3.414 0 00-1.86-.549 3.42 3.42 0 00-1.836.522c-.561.347-1.019.86-1.376 1.536-.34.659-.51 1.446-.51 2.36 0 .915.17 1.72.51 2.415.357.677.815 1.198 1.376 1.564.578.367 1.19.55 1.836.55.662 0 1.283-.174 1.86-.522.578-.366 1.037-.878 1.377-1.537.34-.677.51-1.482.51-2.415zm10.213-4.448v7.354c0 .512.111.888.331 1.125.238.22.629.33 1.173.33h1.657v3.238h-2.243c-3.008 0-4.512-1.574-4.512-4.72v-7.327h-1.683v-3.156h1.683v-3.76h3.594v3.76h3.161v3.156h-3.161zm6.517-4.962c-.629 0-1.156-.21-1.58-.631-.408-.44-.612-.98-.612-1.62 0-.64.204-1.17.612-1.591.424-.44.951-.659 1.58-.659.628 0 1.147.22 1.555.659.425.42.637.951.637 1.592 0 .64-.212 1.18-.637 1.619-.408.42-.927.63-1.555.63zm1.759 1.811v15.203h-3.569V20.468h3.569zm8.778 15.448c-1.359 0-2.583-.32-3.67-.961-1.088-.658-1.946-1.582-2.575-2.772-.612-1.189-.918-2.56-.918-4.116 0-1.555.315-2.927.943-4.116.646-1.19 1.521-2.104 2.626-2.744 1.105-.659 2.337-.988 3.696-.988 1.36 0 2.592.329 3.696.988 1.105.64 1.972 1.555 2.601 2.744.645 1.189.968 2.561.968 4.116 0 1.555-.331 2.927-.994 4.116-.646 1.19-1.529 2.114-2.651 2.772-1.105.64-2.345.96-3.722.96zm0-3.348c.646 0 1.249-.165 1.81-.494.578-.348 1.037-.86 1.376-1.537.341-.677.51-1.5.51-2.47 0-1.445-.357-2.552-1.07-3.32-.697-.787-1.555-1.18-2.575-1.18-1.019 0-1.878.393-2.574 1.18-.68.768-1.02 1.875-1.02 3.32 0 1.445.331 2.561.994 3.348.68.768 1.53 1.153 2.549 1.153zm16.788-12.326c1.682 0 3.042.576 4.079 1.729 1.036 1.134 1.555 2.726 1.555 4.775v8.919h-3.569v-8.398c0-1.207-.281-2.131-.841-2.771-.561-.659-1.326-.988-2.294-.988-.986 0-1.768.33-2.346.988-.561.64-.841 1.564-.841 2.771v8.398h-3.569V20.462h3.569v1.893a4.914 4.914 0 011.81-1.537 5.275 5.275 0 012.447-.576zM19.371 20.07v-4.622c-5.236.194-9.425 4.824-9.425 10.508v.736H.773v-.736c0-11.138 8.296-20.19 18.598-20.386v-5l15.721 9.934-15.72 9.566zm8.059 5.883v.736c0 5.684-4.189 10.314-9.424 10.509v-4.622l-15.72 9.566 15.72 9.933v-5c10.302-.196 18.597-9.248 18.597-20.386v-.736H27.43z"/></g><defs><clipPath id="clip0_1_198"><path fill="#fff" transform="translate(.5)" d="M0 0h192v53H0z"/></clipPath></defs></svg>