<svg width="202" height="202" fill="none" xmlns="http://www.w3.org/2000/svg"><circle cx="4.81" cy="4.81" r="4.81" fill="#1C78FF" fill-opacity=".6"/><circle cx="4.81" cy="43.286" r="4.81" fill="#1C78FF" fill-opacity=".6"/><circle cx="4.81" cy="81.762" r="4.81" fill="#1C78FF" fill-opacity=".6"/><circle cx="4.81" cy="120.238" r="4.81" fill="#1C78FF" fill-opacity=".6"/><circle cx="4.81" cy="158.714" r="4.81" fill="#1C78FF" fill-opacity=".6"/><circle cx="4.81" cy="197.19" r="4.81" fill="#1C78FF" fill-opacity=".6"/><circle cx="43.286" cy="4.81" r="4.81" fill="#1C78FF" fill-opacity=".6"/><circle cx="43.286" cy="43.286" r="4.81" fill="#1C78FF" fill-opacity=".6"/><circle cx="43.286" cy="81.762" r="4.81" fill="#1C78FF" fill-opacity=".6"/><circle cx="43.286" cy="120.238" r="4.81" fill="#1C78FF" fill-opacity=".6"/><circle cx="43.286" cy="158.714" r="4.81" fill="#1C78FF" fill-opacity=".6"/><circle cx="43.286" cy="197.19" r="4.81" fill="#1C78FF" fill-opacity=".6"/><circle cx="81.762" cy="4.81" r="4.81" fill="#1C78FF" fill-opacity=".6"/><circle cx="81.762" cy="43.286" r="4.81" fill="#1C78FF" fill-opacity=".6"/><circle cx="81.762" cy="81.762" r="4.81" fill="#1C78FF" fill-opacity=".6"/><circle cx="81.762" cy="120.238" r="4.81" fill="#1C78FF" fill-opacity=".6"/><circle cx="81.762" cy="158.714" r="4.81" fill="#1C78FF" fill-opacity=".6"/><circle cx="81.762" cy="197.19" r="4.81" fill="#1C78FF" fill-opacity=".6"/><circle cx="120.238" cy="4.81" r="4.81" fill="#1C78FF" fill-opacity=".6"/><circle cx="120.238" cy="43.286" r="4.81" fill="#1C78FF" fill-opacity=".6"/><circle cx="120.238" cy="81.762" r="4.81" fill="#1C78FF" fill-opacity=".6"/><circle cx="120.238" cy="120.238" r="4.81" fill="#1C78FF" fill-opacity=".6"/><circle cx="120.238" cy="158.714" r="4.81" fill="#1C78FF" fill-opacity=".6"/><circle cx="120.238" cy="197.19" r="4.81" fill="#1C78FF" fill-opacity=".6"/><circle cx="158.714" cy="4.81" r="4.81" fill="#1C78FF" fill-opacity=".6"/><circle cx="158.714" cy="43.286" r="4.81" fill="#1C78FF" fill-opacity=".6"/><circle cx="158.714" cy="81.762" r="4.81" fill="#1C78FF" fill-opacity=".6"/><circle cx="158.714" cy="120.238" r="4.81" fill="#1C78FF" fill-opacity=".6"/><circle cx="158.714" cy="158.714" r="4.81" fill="#1C78FF" fill-opacity=".6"/><circle cx="158.714" cy="197.19" r="4.81" fill="#1C78FF" fill-opacity=".6"/><circle cx="197.191" cy="4.81" r="4.81" fill="#1C78FF" fill-opacity=".6"/><circle cx="197.191" cy="43.286" r="4.81" fill="#1C78FF" fill-opacity=".6"/><circle cx="197.191" cy="81.762" r="4.81" fill="#1C78FF" fill-opacity=".6"/><circle cx="197.191" cy="120.238" r="4.81" fill="#1C78FF" fill-opacity=".6"/><circle cx="197.191" cy="158.714" r="4.81" fill="#1C78FF" fill-opacity=".6"/><circle cx="197.191" cy="197.19" r="4.81" fill="#1C78FF" fill-opacity=".6"/></svg>