<svg width="105" height="33" fill="none" xmlns="http://www.w3.org/2000/svg"><g clip-path="url(#clip0_1_212)" fill="#151515"><path d="M22.52 5.708c0 2.706-2.008 4.9-4.486 4.9-2.478 0-4.487-2.194-4.487-4.9 0-2.705 2.009-4.898 4.487-4.898s4.487 2.193 4.487 4.898zm-6.906 21.568C7.452 27.276.836 20.052.836 11.14V3.396c8.162 0 14.779 7.224 14.779 16.135v7.745zM31.872 8.562c-8.162 0-14.778 7.223-14.778 16.134v7.745c8.162 0 14.778-7.224 14.778-16.135V8.562zm27.319-2.927V25.06h-3.568V12.425l-4.767 12.636h-2.702l-4.792-12.636v12.636h-3.569V5.635h4.053l5.66 14.444 5.658-14.444h4.027zm4.322 2.167c-.629 0-1.156-.213-1.58-.64-.409-.445-.613-.992-.613-1.642 0-.65.204-1.187.612-1.614a2.097 2.097 0 011.58-.668c.63 0 1.148.223 1.555.668.425.427.638.965.638 1.614 0 .65-.213 1.197-.638 1.642-.407.427-.926.64-1.554.64zm1.759 1.837v15.419h-3.57V9.639h3.57zm10.331-.231c1.683 0 3.042.584 4.079 1.753 1.036 1.15 1.555 2.765 1.555 4.843v9.045h-3.57v-8.516c0-1.225-.28-2.162-.84-2.811-.561-.668-1.326-1.002-2.295-1.002-.985 0-1.767.334-2.345 1.002-.56.65-.84 1.586-.84 2.81v8.517h-3.57V9.631h3.57v1.92a4.933 4.933 0 011.81-1.559 5.214 5.214 0 012.446-.584zM87.77 12.83v7.459c0 .52.11.9.331 1.14.238.223.63.335 1.173.335h1.657v3.284h-2.243c-3.008 0-4.513-1.596-4.513-4.787V12.83h-2.648v-3.2h2.648V5.817h3.595v7.013z"/><path d="M104.306 9.637l-8.743 22.71h-3.799l3.06-7.681-5.66-15.029h4.002l3.645 10.77 3.697-10.77h3.798z"/></g><defs><clipPath id="clip0_1_212"><path fill="#fff" transform="translate(.75)" d="M0 0h104v33H0z"/></clipPath></defs></svg>