<svg width="160" height="37" fill="none" xmlns="http://www.w3.org/2000/svg"><g clip-path="url(#clip0_1_222)" fill="#151515"><path d="M1.473 24.288l11.249-5.405 6.475 4.054 1.308 13.299-7.98-.07 1.178-9.247-1.373-.853-6.737 5.69-4.12-7.468zm18.445-1.927l9.942 7.894 3.924-7.61-7.98-3.484v-1.707l7.98-3.556L29.86 6.36l-9.942 7.895v8.107zm-.721-8.734L20.505.329l-7.98.142 1.178 9.246-1.373.853-6.802-5.69-4.055 7.397 11.249 5.405 6.475-4.054zm41.208 3.058v12.46h4.294v-15.88h-6.254v3.42h1.96zm-.131-5.645c.394.444.993.666 1.799.666.805 0 1.395-.222 1.77-.666.395-.464.591-1.044.591-1.739 0-.715-.196-1.294-.59-1.738-.376-.464-.966-.696-1.771-.696-.806 0-1.405.232-1.799.696-.375.444-.563 1.023-.563 1.738 0 .695.188 1.275.563 1.739zm-14.82 17.762c1.217.598 2.71.898 4.482.898 1.664 0 3.096-.28 4.295-.84 1.199-.56 2.12-1.343 2.764-2.348.663-1.024.993-2.212.993-3.564 0-1.313-.312-2.424-.939-3.332-.608-.927-1.458-1.651-2.55-2.173-1.092-.54-2.353-.879-3.784-1.014l-1.503-.145c-.895-.077-1.54-.338-1.933-.782a2.284 2.284 0 01-.59-1.565c0-.464.107-.889.321-1.275.215-.406.537-.724.967-.956.447-.232.993-.348 1.637-.348.68 0 1.244.135 1.691.406.099.057.192.118.28.183l.021.016.097.076c.272.224.488.49.649.797.232.425.35.898.35 1.42h4.293c0-1.391-.295-2.598-.885-3.622-.59-1.043-1.44-1.845-2.55-2.405-1.092-.58-2.407-.87-3.946-.87-1.467 0-2.737.271-3.811.812a5.957 5.957 0 00-2.523 2.26c-.591.985-.886 2.154-.886 3.506 0 1.874.582 3.38 1.745 4.52 1.163 1.14 2.72 1.797 4.67 1.97l1.476.145c1.199.116 2.067.377 2.604.783.536.386.805.917.805 1.593 0 .311-.047.602-.142.875-.07.202-.165.393-.287.574-.287.406-.707.724-1.262.957-.555.231-1.244.347-2.067.347-.912 0-1.655-.135-2.227-.406-.573-.29-1.002-.666-1.29-1.13a2.959 2.959 0 01-.401-1.506H41.75c0 1.371.313 2.588.939 3.65.627 1.044 1.548 1.875 2.765 2.492zm28.829.544c-1.485 0-2.684-.193-3.597-.58-.913-.405-1.583-1.071-2.013-1.999-.411-.946-.617-2.22-.617-3.824v-6.288h-2.228v-3.39h2.228V8.977h3.999v4.288h4.295v3.39h-4.295v6.462c0 .753.18 1.332.537 1.738.375.387.904.58 1.584.58h2.174v3.911h-2.067z"/><path fill-rule="evenodd" clip-rule="evenodd" d="M81.521 29.011c.966.463 2.075.695 3.328.695 1.234 0 2.326-.232 3.274-.695a6.471 6.471 0 002.362-1.941 6.93 6.93 0 001.262-2.84h-3.946c-.179.483-.519.888-1.02 1.217-.501.328-1.145.493-1.932.493a4.25 4.25 0 01-1.308-.187 2.828 2.828 0 01-.786-.393c-.537-.386-.93-.927-1.181-1.623a6.008 6.008 0 01-.179-.62 7.008 7.008 0 01-.123-.684h10.743V20.87c0-1.449-.286-2.782-.859-3.999a7.258 7.258 0 00-2.496-2.984c-1.073-.773-2.398-1.16-3.973-1.16-1.198 0-2.272.232-3.221.696a6.654 6.654 0 00-2.334 1.825 8.627 8.627 0 00-1.45 2.637 9.559 9.559 0 00-.483 3.043v.58c0 1.023.161 2.027.483 3.013.34.965.824 1.844 1.45 2.636a7.148 7.148 0 002.389 1.855zm-.175-9.443a5.22 5.22 0 01.255-.902c.269-.714.662-1.255 1.181-1.622.194-.137.404-.249.63-.335a3.57 3.57 0 011.275-.216c.735 0 1.342.184 1.826.551.501.348.877.86 1.127 1.536a5.33 5.33 0 01.241.878c.022.11.04.223.056.339h-6.632c.012-.078.026-.154.041-.229z"/><path d="M93.785 29.145v-15.88h3.409v4c.046-.238.099-.466.158-.685a8.24 8.24 0 01.164-.532c.376-1.082.939-1.893 1.691-2.434.751-.56 1.673-.84 2.765-.84h.187c1.11 0 2.031.28 2.765.84.751.54 1.315 1.352 1.691 2.434l.03.081.025.075.052-.156c.394-1.082.967-1.893 1.718-2.434.752-.56 1.673-.84 2.765-.84h.188c1.109 0 2.039.28 2.791.84.77.54 1.351 1.352 1.744 2.434.394 1.081.591 2.434.591 4.056v9.04h-4.294v-9.3c0-.87-.215-1.575-.645-2.116-.411-.54-1.002-.811-1.771-.811-.769 0-1.378.28-1.825.84-.447.541-.671 1.265-.671 2.173v9.215h-4.322v-9.302c0-.869-.214-1.574-.644-2.115-.411-.54-.993-.811-1.744-.811-.788 0-1.405.28-1.852.84-.448.541-.672 1.265-.672 2.173v9.215h-4.294z"/><path fill-rule="evenodd" clip-rule="evenodd" d="M127.996 26.08v3.06h3.408v-9.736c0-1.468-.268-2.666-.805-3.593-.537-.947-1.324-1.652-2.362-2.116-1.019-.463-2.281-.695-3.784-.695a47.097 47.097 0 00-1.664.029c-.591.02-1.164.048-1.718.087l-.424.03a64.447 64.447 0 00-1.025.086v3.912a138.956 138.956 0 012.417-.146 71.72 71.72 0 012.977-.086c.788 0 1.36.203 1.718.608.358.406.537 1.014.537 1.826v.058h-2.657c-1.306 0-2.46.183-3.463.55-1.002.348-1.78.898-2.334 1.652-.556.734-.833 1.68-.833 2.84 0 1.062.224 1.98.671 2.752a4.521 4.521 0 001.852 1.738c.806.406 1.736.61 2.791.61 1.021 0 1.879-.204 2.578-.61a4.175 4.175 0 001.664-1.738 5.703 5.703 0 00.422-1.006l.034-.112zm-.725-2.822v-1.275h-2.684c-.752 0-1.333.202-1.744.608-.394.386-.591.918-.591 1.594 0 .318.049.607.147.868a2 2 0 00.444.696c.411.387.992.58 1.744.58.143 0 .281-.008.415-.023a3.1 3.1 0 00.317-.052 2.72 2.72 0 00.557-.186c.393-.193.715-.512.965-.956.251-.444.394-1.063.43-1.854z"/><path d="M133.969 29.144V13.265h3.409v5.241c.163-1.496.575-2.702 1.234-3.618.895-1.217 2.183-1.825 3.866-1.825h.563v3.998h-1.074c-1.18 0-2.093.348-2.737 1.043-.645.676-.967 1.662-.967 2.956v8.084h-4.294zm14.517-7.417h1.422l4.644 7.418h4.831l-5.888-9.11 4.841-6.77h-4.509l-5.341 7.55V7.993h-4.295v21.153h4.295v-7.418z"/></g><defs><clipPath id="clip0_1_222"><path fill="#fff" transform="translate(.5)" d="M0 0h159v37H0z"/></clipPath></defs></svg>