<svg width="236" height="57" fill="none" xmlns="http://www.w3.org/2000/svg"><path d="M64.188 46.738l2.622-.707V15.867l-2.623-.707v-.707H75.99c4.429 0 7.678.77 9.747 2.31 2.098 1.508 3.147 3.487 3.147 5.938 0 1.697-.452 3.064-1.355 4.1-.903 1.037-2.054 1.807-3.453 2.31-1.486.566-3.089.864-4.808.895v.236c2.127.094 3.977.44 5.551 1.037 1.603.565 2.928 1.445 3.978 2.64 1.078 1.193 1.617 2.717 1.617 4.57 0 2.798-1.064 4.997-3.191 6.6-2.127 1.57-5.58 2.356-10.36 2.356H64.189v-.707zM75.99 29.535c.961 0 1.85-.283 2.666-.848.845-.598 1.515-1.414 2.011-2.45.524-1.07.786-2.248.786-3.536 0-1.382-.262-2.608-.786-3.676-.496-1.069-1.166-1.901-2.011-2.498-.816-.597-1.705-.896-2.666-.896h-1.967v13.904h1.967zm.874 16.732c1.806 0 3.278-.692 4.415-2.074 1.136-1.383 1.704-3.284 1.704-5.703 0-2.42-.568-4.32-1.704-5.703-1.137-1.382-2.609-2.074-4.415-2.074h-2.841v15.553h2.84zm14.409.471l2.623-.707V15.867l-2.623-.707v-.707h5.683c2.622 0 3.934 1.414 3.934 4.242V46.03l2.623.707v.707h-12.24v-.707zm24.259 1.413c-3.613 0-6.454-1.1-8.523-3.299-2.04-2.23-3.06-5.294-3.06-9.19 0-3.897 1.02-6.945 3.06-9.144 2.069-2.23 4.91-3.346 8.523-3.346 3.614 0 6.44 1.115 8.48 3.346 2.069 2.2 3.104 5.247 3.104 9.144 0 3.896-1.035 6.96-3.104 9.19-2.04 2.2-4.866 3.3-8.48 3.3zm0-.942c1.166 0 2.142-.88 2.929-2.64.816-1.76 1.224-4.729 1.224-8.907 0-4.18-.408-7.149-1.224-8.908-.787-1.76-1.763-2.64-2.929-2.64-1.165 0-2.156.88-2.972 2.64-.787 1.76-1.18 4.729-1.18 8.908 0 4.178.393 7.148 1.18 8.907.816 1.76 1.807 2.64 2.972 2.64zm23.178.942c-1.807 0-3.424-.424-4.852-1.272-.699-.408-1.268-.849-1.705-1.32-.466.691-.976 1.226-1.529 1.603a6.138 6.138 0 01-.875.518h-1.093v-8.012h1.749c.379 1.32.932 2.545 1.661 3.676 1.544 2.42 3.468 3.629 5.77 3.629 1.224 0 2.141-.314 2.753-.943.641-.66.962-1.602.962-2.827 0-1.037-.437-1.901-1.311-2.593-.845-.722-2.186-1.602-4.022-2.639-1.573-.848-2.856-1.602-3.846-2.262a10.463 10.463 0 01-2.492-2.546c-.67-1.036-1.005-2.246-1.005-3.628 0-1.886.743-3.41 2.229-4.572 1.515-1.194 3.832-1.791 6.95-1.791 1.544 0 2.972.44 4.284 1.32.641.408 1.194.832 1.661 1.272.378-.566.888-1.1 1.529-1.603.496-.314.788-.486.875-.518h1.093v8.012h-1.749c-.437-1.35-.976-2.56-1.617-3.629-1.457-2.45-3.191-3.676-5.202-3.676-.786 0-1.457.314-2.01.943-.554.628-.831 1.413-.831 2.356 0 1.194.466 2.2 1.399 3.017.933.785 2.346 1.696 4.24 2.734 1.544.848 2.768 1.602 3.671 2.262a8.73 8.73 0 012.361 2.356c.67.943 1.005 2.043 1.005 3.3 0 4.555-3.351 6.833-10.053 6.833zm21.422 0c-1.807 0-3.424-.424-4.852-1.272-.7-.408-1.268-.849-1.705-1.32-.466.691-.976 1.226-1.53 1.603a6.126 6.126 0 01-.874.518h-1.093v-8.012h1.749c.379 1.32.932 2.545 1.661 3.676 1.544 2.42 3.467 3.629 5.769 3.629 1.224 0 2.142-.314 2.754-.943.641-.66.962-1.602.962-2.827 0-1.037-.437-1.901-1.312-2.593-.845-.722-2.185-1.602-4.021-2.639-1.574-.848-2.856-1.602-3.847-2.262a10.46 10.46 0 01-2.491-2.546c-.67-1.036-1.005-2.246-1.005-3.628 0-1.886.743-3.41 2.229-4.572 1.515-1.194 3.832-1.791 6.95-1.791 1.544 0 2.972.44 4.284 1.32a11.11 11.11 0 011.66 1.272c.379-.566.889-1.1 1.53-1.603.496-.314.787-.486.874-.518h1.093v8.012h-1.748c-.437-1.35-.976-2.56-1.617-3.629-1.458-2.45-3.191-3.676-5.202-3.676-.787 0-1.457.314-2.01.943-.554.628-.831 1.413-.831 2.356 0 1.194.466 2.2 1.399 3.017.932.785 2.346 1.696 4.24 2.734 1.544.848 2.768 1.602 3.671 2.262a8.73 8.73 0 012.361 2.356c.67.943 1.005 2.043 1.005 3.3 0 4.555-3.351 6.833-10.053 6.833zm22.729 0c-3.614 0-6.455-1.1-8.524-3.299-2.04-2.23-3.06-5.294-3.06-9.19 0-3.897 1.02-6.945 3.06-9.144 2.069-2.23 4.91-3.346 8.524-3.346 3.613 0 6.44 1.115 8.479 3.346 2.069 2.2 3.104 5.247 3.104 9.144 0 3.896-1.035 6.96-3.104 9.19-2.039 2.2-4.866 3.3-8.479 3.3zm0-.942c1.165 0 2.142-.88 2.928-2.64.816-1.76 1.224-4.729 1.224-8.907 0-4.18-.408-7.149-1.224-8.908-.786-1.76-1.763-2.64-2.928-2.64-1.166 0-2.157.88-2.972 2.64-.787 1.76-1.181 4.729-1.181 8.908 0 4.178.394 7.148 1.181 8.907.815 1.76 1.806 2.64 2.972 2.64zm12.909-.472l2.622-.707V25.293l-2.622-.707v-.707h3.933c1.72 0 3.075.597 4.065 1.79.379.472.7 1.053.962 1.744.437-.88.903-1.586 1.399-2.12 1.311-1.414 2.812-2.121 4.502-2.121s3.176.409 4.459 1.225c1.282.786 2.272 1.87 2.972 3.252.437-.911.903-1.65 1.398-2.215 1.341-1.508 2.842-2.262 4.502-2.262 1.545 0 2.929.345 4.153 1.037 1.253.691 2.215 1.634 2.885 2.828a7.606 7.606 0 011.049 3.912V46.03l2.623.707v.707h-5.683c-2.622 0-3.934-1.414-3.934-4.241V30.948c0-2.042-.291-3.566-.874-4.571-.583-1.037-1.238-1.556-1.967-1.556-.845 0-1.704.629-2.579 1.885a14.009 14.009 0 00-.918 1.886V46.03l2.623.707v.707h-12.239v-.707l2.623-.707V30.948c0-2.042-.292-3.566-.874-4.571-.583-1.037-1.239-1.556-1.968-1.556-.845 0-1.704.629-2.578 1.885-.35.598-.656 1.226-.918 1.886V46.03l2.622.707v.707H195.77v-.707z" fill="#151515"/><path fill-rule="evenodd" clip-rule="evenodd" d="M28.614 56.453c-.282.06-.574.08-.87.055-9.157-.749-17.823-6.202-22.76-15.423C.046 31.863-.001 21.043 3.976 12.119c.577-1.296 1.829-2.075 3.158-1.966a27.267 27.267 0 019.864 2.748c2.346-4.93 5.816-9.137 10.046-12.226a3.06 3.06 0 013.651 0c4.172 3.047 7.605 7.181 9.95 12.026a27.241 27.241 0 019.45-2.548c1.33-.11 2.58.67 3.158 1.966 3.976 8.924 3.93 19.744-1.008 28.966-4.938 9.221-13.604 14.674-22.76 15.423a3.007 3.007 0 01-.87-.055zm6.708-5.59c5.489-2.013 10.343-6.097 13.466-11.93 4.158-7.765 4.293-16.844 1.088-24.44a23.499 23.499 0 00-7.623 2.146 35.04 35.04 0 011.822 11.206c0 8.97-3.34 17.098-8.753 23.018zm1.789-36.16c-1.958-4.054-4.795-7.537-8.241-10.157-3.52 2.676-6.405 6.253-8.367 10.417 3.122 2.153 5.896 4.985 8.111 8.435 2.307-3.592 5.218-6.513 8.497-8.696zm-6.235 12.869c2.005-3.689 4.706-6.67 7.821-8.859a30.487 30.487 0 011.386 9.132c0 7.373-2.595 14.093-6.863 19.155 1.155-6.395.456-13.205-2.344-19.428zm-4.523 0c-1.915-3.523-4.465-6.4-7.404-8.559a30.515 30.515 0 00-1.294 8.832c0 6.995 2.337 13.402 6.22 18.363-.96-6.163-.208-12.669 2.478-18.636zm2.261 21.53a28.665 28.665 0 000-16.054 28.67 28.67 0 000 16.055zM8.44 38.933c3.265 6.099 8.422 10.286 14.218 12.192-5.554-5.94-8.994-14.177-8.994-23.28 0-3.855.617-7.555 1.75-10.991a23.526 23.526 0 00-8.062-2.36c-3.205 7.596-3.07 16.675 1.088 24.44z" fill="#151515"/></svg>