<svg width="170" height="49" fill="none" xmlns="http://www.w3.org/2000/svg"><g clip-path="url(#clip0_1_236)" fill="#151515"><path fill-rule="evenodd" clip-rule="evenodd" d="M34.637 9.286h-18.27V.946h26.021v28h-7.75V9.286zM20.373 25.888a6.84 6.84 0 00-3.999-1.305v-8.34c2.957 0 5.847.943 8.305 2.71 2.458 1.768 4.374 4.28 5.505 7.22a17.224 17.224 0 01.851 9.293c-.577 3.12-2 5.986-4.091 8.236-2.09 2.25-4.754 3.782-7.654 4.402-2.9.621-5.905.302-8.636-.915-2.732-1.218-5.067-3.28-6.709-5.925-1.643-2.645-2.52-5.755-2.52-8.937h7.752c0 1.532.422 3.03 1.213 4.303.79 1.274 1.915 2.267 3.23 2.853a6.723 6.723 0 004.158.44 7.051 7.051 0 003.685-2.119 7.943 7.943 0 001.97-3.965 8.292 8.292 0 00-.41-4.475 7.65 7.65 0 00-2.65-3.476z"/><path d="M54.57 41.877V6.883h12.033c2.601 0 4.754.466 6.457 1.4 1.703.933 2.973 2.216 3.81 3.849.835 1.633 1.254 3.466 1.254 5.499 0 1.933-.403 3.716-1.208 5.349-.806 1.6-2.06 2.9-3.763 3.9-1.704.966-3.887 1.449-6.55 1.449h-6.086v13.547H54.57zm5.947-18.747h5.714c2.075 0 3.561-.483 4.46-1.45.928-1 1.393-2.35 1.393-4.05 0-1.732-.465-3.082-1.393-4.048-.899-1-2.385-1.5-4.46-1.5h-5.714V23.13zm29.828 19.357c-2.322 0-4.382-.533-6.178-1.6-1.797-1.066-3.206-2.566-4.228-4.499-1.021-1.932-1.533-4.165-1.533-6.698 0-2.566.496-4.85 1.487-6.849 1.022-2 2.416-3.55 4.181-4.65 1.796-1.132 3.902-1.699 6.318-1.699 2.261 0 4.258.533 5.993 1.6 1.734 1.066 3.081 2.533 4.041 4.4.992 1.832 1.487 3.882 1.487 6.148 0 .366-.016.75-.046 1.15 0 .4-.016.817-.047 1.25H84.306c.124 1.932.743 3.449 1.858 4.549 1.146 1.1 2.525 1.65 4.135 1.65 1.208 0 2.214-.284 3.02-.85a5.43 5.43 0 001.858-2.3h6.039a12.12 12.12 0 01-2.183 4.3 10.617 10.617 0 01-3.717 2.999c-1.455.733-3.112 1.1-4.97 1.1zm.047-20.796c-1.456 0-2.74.45-3.856 1.35-1.115.866-1.827 2.2-2.137 4h11.475c-.093-1.634-.65-2.934-1.673-3.9-1.022-.966-2.292-1.45-3.809-1.45zm14.202 20.197V17.092h5.249l.465 4.2c.712-1.467 1.734-2.634 3.066-3.5 1.362-.867 2.958-1.3 4.785-1.3 2.849 0 5.064.967 6.643 2.9 1.579 1.933 2.369 4.765 2.369 8.498v13.998h-5.946V28.49c0-2.133-.403-3.766-1.208-4.9-.805-1.132-2.06-1.699-3.763-1.699-1.672 0-3.05.633-4.134 1.9-1.053 1.266-1.58 3.033-1.58 5.299v12.798h-5.946zm36.209-.006c-2.416 0-4.352-.634-5.807-1.9-1.456-1.267-2.184-3.516-2.184-6.749V22.435h-3.949v-5.349h3.949l.697-6.648h5.249v6.648h6.226v5.35h-6.226v10.847c0 1.2.233 2.033.697 2.5.496.433 1.332.65 2.509.65h2.88v5.449h-4.041zm14.904.605c-1.982 0-3.608-.333-4.878-1-1.27-.7-2.214-1.616-2.834-2.75-.619-1.132-.929-2.382-.929-3.748 0-2.3.837-4.166 2.509-5.6 1.672-1.432 4.181-2.149 7.526-2.149h5.853v-.6c0-1.7-.449-2.95-1.347-3.749-.898-.8-2.013-1.2-3.345-1.2-1.208 0-2.261.317-3.159.95-.898.6-1.455 1.5-1.672 2.7h-5.807c.154-1.8.712-3.367 1.672-4.7a9.573 9.573 0 013.81-3.049c1.548-.733 3.282-1.1 5.203-1.1 3.283 0 5.869.883 7.758 2.65 1.889 1.766 2.834 4.266 2.834 7.498v15.248h-5.064l-.558-4a8.933 8.933 0 01-2.88 3.3c-1.208.866-2.771 1.3-4.692 1.3zm1.347-4.999c1.704 0 3.02-.6 3.949-1.8.96-1.199 1.564-2.682 1.812-4.448h-5.064c-1.579 0-2.71.316-3.391.95-.681.6-1.022 1.35-1.022 2.249 0 .967.341 1.717 1.022 2.25.681.533 1.579.8 2.694.8z"/></g><defs><clipPath id="clip0_1_236"><path fill="#fff" transform="translate(.5 .5)" d="M0 0h169v48H0z"/></clipPath></defs></svg>