<svg width="1392" height="490" fill="none" xmlns="http://www.w3.org/2000/svg"><path d="M1389.51 273.992c-18.61-13.026-27.03-39.345-40.34-57.238-19.15-25.728-40.23-56.151-65.34-76.03-31.68-25.081-55.43-53.854-95.51-65.513-43.68-12.704-88.11-24.637-132.24-5.862-41.33 17.588-72.751 52.239-104.301 83.788-50.397 50.398-104.505 98.991-174.817 119.304-21.881 6.321-40.396 17.068-63.616 17.068-14.267 0-26.671 4.303-40.515 6.034-33.986 4.248-58.844-37.606-73.099-61.893-11.518-19.624-22.723-33.767-25.688-56.893-2.247-17.525-6.896-35.391-6.896-53.1 0-24.736 9.147-43.47 22.412-63.79 15.429-23.636 38.433-32.79 59.996-48.962 19.959-14.969 60.049-6.896 85.168-6.896 16.565 0 28.812 2.425 44.824 6.206 28.922 6.829 55.801 5.483 84.478 16.206 17.248 6.45 32.386 10.542 46.549 21.033 7.542 5.587 25.565 15.848 25.861 26.205.374 13.108 3.64 18.543-3.104 30.344-11.918 20.857-26.259 39.993-37.239 61.375-8.804 17.146-23.934 35.109-24.826 55.169-1.108 24.941 0 50.21 0 75.168 0 64.601-80.263 124.13-141.198 124.13-11.766 0-21.518-2.292-32.757-6.378-31.766-11.552-64.983-21.86-95.856-35.516-14.052-6.215-36.385-12.18-48.273-22.24-19.815-16.766-26.396-46.547-32.24-70.34-11.871-48.333 4.863-78.996 37.929-112.062 6.842-6.842 10.906-28.77 13.103-37.757 6.593-26.971 19.301-53.555 22.757-81.202 4.224-33.791-83.619-47.965-102.407-49.997-26.66-2.882-51.786 10.887-67.41 32.24-15.77 21.551-7.708 46.442-6.896 71.202.775 23.658 2.923 51.999-8.103 73.789-12.014 23.742-24.24 44.28-39.653 65.858-16.714 23.4-39.972 48.623-62.065 66.893-14.494 11.985-43.352 33.43-63.1 34.135-20.354.727-39.134-20.063-52.066-34.135-6.167-6.712-15.44-24.92-16.895-34.136-2.408-15.25-31.048 6.191-35.86 9.31-18.311 11.868-12.308 50.243-13.792 71.03-1.722 24.11-16.542 51.777-39.308 60.686-12.104 4.736-24.943 8.56-36.55 13.447-13.181 5.55-19.01-1.36-25.86 13.103-3.662 7.731-15.391 20.592-16.206 27.929-.788 7.093.15 8.175-6.207 12.413" stroke="#000" stroke-width="3" stroke-linecap="round"/></svg>